<svg xmlns="http://www.w3.org/2000/svg" width="900" height="620" viewBox="0 0 900 620" role="img" aria-label="ענתיק עומד מגירות דלתות">
  <defs>
    <linearGradient id="wall" x1="0" x2="1" y1="0" y2="1">
      <stop offset="0" stop-color="#f7f2ea"/>
      <stop offset="1" stop-color="#e5d3bf"/>
    </linearGradient>
    <linearGradient id="wood" x1="0" x2="1">
      <stop offset="0" stop-color="#f3eee7"/>
      <stop offset="1" stop-color="#cfb89f"/>
    </linearGradient>
    <filter id="shadow" x="-20%" y="-20%" width="140%" height="140%">
      <feDropShadow dx="0" dy="18" stdDeviation="18" flood-color="#4c2f1b" flood-opacity=".18"/>
    </filter>
  </defs>
  <rect width="900" height="620" rx="34" fill="url(#wall)"/>
  <path d="M0 460h900v160H0z" fill="#d9c9b9"/>
  <g filter="url(#shadow)">
    <rect x="306" y="66" width="288" height="202" rx="26" fill="#f8fbfb"/>
    <rect x="326" y="86" width="248" height="162" rx="18" fill="#dfe9ed"/>
    <rect x="282" y="286" width="336" height="44" rx="22" fill="#fff"/>
    <rect x="264" y="318" width="372" height="190" rx="18" fill="url(#wood)"/>
    <path d="M284 346h156v62H284zm176 0h156v62H460zm-176 82h156v58H284zm176 0h156v58H460z" fill="#f8f4ef" opacity=".9"/>
    <circle cx="420" cy="377" r="5" fill="#9a6a3a"/>
    <circle cx="480" cy="377" r="5" fill="#9a6a3a"/>
    <circle cx="420" cy="456" r="5" fill="#9a6a3a"/>
    <circle cx="480" cy="456" r="5" fill="#9a6a3a"/>
  </g>
  <text x="450" y="570" text-anchor="middle" font-family="Arial, sans-serif" font-size="42" font-weight="700" fill="#4c2f1b">ענתיק</text>
</svg>
